<svg width="1615" height="1515" viewBox="0 0 1615 1515" fill="none" xmlns="http://www.w3.org/2000/svg">
<rect width="1615" height="1515" fill="white"/>
<rect width="1615" height="1515" fill="#EE9A27"/>
<path d="M316.589 1041V1049.2H326.929V1053.43H316.589V1061.8H329.709V1066.19H311.072V1036.62H329.709V1041H316.589Z" fill="white"/>
<path d="M377.474 1036.62L365.54 1066.19H360.574L348.64 1036.62H353.054C353.531 1036.62 353.919 1036.74 354.219 1036.97C354.518 1037.2 354.743 1037.5 354.893 1037.87L361.861 1055.91C362.093 1056.49 362.311 1057.14 362.515 1057.85C362.733 1058.54 362.938 1059.27 363.128 1060.04C363.292 1059.27 363.469 1058.54 363.66 1057.85C363.85 1057.14 364.062 1056.49 364.293 1055.91L371.221 1037.87C371.33 1037.56 371.541 1037.27 371.854 1037.01C372.181 1036.75 372.576 1036.62 373.04 1036.62H377.474Z" fill="white"/>
<path d="M403.624 1041V1049.2H413.965V1053.43H403.624V1061.8H416.744V1066.19H398.107V1036.62H416.744V1041H403.624Z" fill="white"/>
<path d="M464.1 1036.62V1066.19H461.28C460.844 1066.19 460.477 1066.12 460.177 1065.99C459.891 1065.84 459.612 1065.59 459.339 1065.25L443.91 1045.54C443.992 1046.44 444.033 1047.27 444.033 1048.03V1066.19H439.19V1036.62H442.071C442.303 1036.62 442.5 1036.64 442.664 1036.66C442.841 1036.68 442.991 1036.72 443.113 1036.79C443.25 1036.84 443.379 1036.93 443.502 1037.05C443.624 1037.16 443.761 1037.31 443.91 1037.5L459.4 1057.3C459.359 1056.82 459.325 1056.35 459.298 1055.89C459.271 1055.42 459.257 1054.99 459.257 1054.6V1036.62H464.1Z" fill="white"/>
<path d="M508.895 1041.14H499.985V1066.19H494.488V1041.14H485.578V1036.62H508.895V1041.14Z" fill="white"/>
<path d="M545.991 1042C545.828 1042.29 545.651 1042.5 545.46 1042.63C545.283 1042.76 545.058 1042.82 544.786 1042.82C544.5 1042.82 544.186 1042.72 543.846 1042.51C543.519 1042.29 543.124 1042.05 542.66 1041.8C542.197 1041.54 541.652 1041.3 541.026 1041.1C540.413 1040.88 539.684 1040.77 538.839 1040.77C538.076 1040.77 537.409 1040.87 536.836 1041.06C536.264 1041.24 535.781 1041.49 535.385 1041.82C535.004 1042.14 534.718 1042.54 534.527 1043C534.336 1043.45 534.241 1043.95 534.241 1044.5C534.241 1045.19 534.432 1045.77 534.813 1046.23C535.208 1046.7 535.726 1047.09 536.366 1047.42C537.007 1047.75 537.736 1048.04 538.553 1048.3C539.37 1048.56 540.208 1048.84 541.066 1049.14C541.925 1049.42 542.763 1049.76 543.58 1050.16C544.397 1050.54 545.126 1051.03 545.767 1051.63C546.407 1052.22 546.918 1052.94 547.299 1053.8C547.694 1054.66 547.892 1055.7 547.892 1056.93C547.892 1058.26 547.66 1059.52 547.197 1060.69C546.747 1061.85 546.08 1062.87 545.194 1063.74C544.322 1064.6 543.253 1065.28 541.986 1065.78C540.719 1066.27 539.268 1066.52 537.633 1066.52C536.693 1066.52 535.767 1066.42 534.854 1066.23C533.941 1066.06 533.063 1065.8 532.218 1065.46C531.387 1065.12 530.604 1064.71 529.868 1064.23C529.132 1063.75 528.478 1063.22 527.906 1062.63L529.521 1060C529.657 1059.81 529.834 1059.65 530.052 1059.53C530.27 1059.39 530.501 1059.32 530.747 1059.32C531.087 1059.32 531.455 1059.46 531.85 1059.75C532.245 1060.02 532.715 1060.33 533.26 1060.67C533.805 1061.01 534.439 1061.33 535.161 1061.61C535.896 1061.88 536.775 1062.02 537.797 1062.02C539.364 1062.02 540.576 1061.65 541.434 1060.92C542.293 1060.17 542.722 1059.1 542.722 1057.71C542.722 1056.93 542.524 1056.29 542.129 1055.8C541.748 1055.31 541.237 1054.9 540.596 1054.58C539.956 1054.24 539.227 1053.95 538.41 1053.72C537.592 1053.49 536.761 1053.23 535.917 1052.96C535.072 1052.69 534.241 1052.36 533.424 1051.98C532.606 1051.6 531.877 1051.1 531.237 1050.49C530.597 1049.87 530.079 1049.11 529.684 1048.2C529.303 1047.27 529.112 1046.13 529.112 1044.78C529.112 1043.7 529.323 1042.65 529.745 1041.63C530.181 1040.61 530.808 1039.7 531.625 1038.91C532.443 1038.12 533.451 1037.49 534.65 1037.01C535.849 1036.53 537.225 1036.29 538.778 1036.29C540.522 1036.29 542.129 1036.57 543.6 1037.11C545.072 1037.66 546.325 1038.42 547.361 1039.4L545.991 1042Z" fill="white"/>
<path d="M569.383 1071.2C569.138 1071 569.015 1070.75 569.015 1070.45C569.015 1070.34 569.049 1070.21 569.117 1070.08C569.199 1069.94 569.294 1069.82 569.403 1069.71C569.553 1069.55 569.737 1069.34 569.955 1069.1C570.173 1068.86 570.391 1068.59 570.609 1068.28C570.827 1067.98 571.024 1067.64 571.202 1067.28C571.392 1066.92 571.535 1066.54 571.631 1066.13C571.195 1066.13 570.8 1066.06 570.445 1065.91C570.091 1065.74 569.785 1065.52 569.526 1065.25C569.281 1064.98 569.083 1064.66 568.933 1064.29C568.797 1063.92 568.729 1063.52 568.729 1063.08C568.729 1062.7 568.797 1062.35 568.933 1062.02C569.083 1061.68 569.287 1061.39 569.546 1061.14C569.805 1060.88 570.118 1060.68 570.486 1060.55C570.854 1060.4 571.256 1060.32 571.692 1060.32C572.21 1060.32 572.659 1060.42 573.041 1060.61C573.436 1060.79 573.756 1061.04 574.001 1061.37C574.26 1061.68 574.451 1062.05 574.573 1062.47C574.71 1062.88 574.778 1063.32 574.778 1063.78C574.778 1064.43 574.676 1065.12 574.471 1065.84C574.28 1066.57 573.994 1067.29 573.613 1068.01C573.231 1068.73 572.755 1069.44 572.182 1070.12C571.624 1070.8 570.984 1071.43 570.261 1072L569.383 1071.2Z" fill="white"/>
<path d="M602.932 1066.19H597.415V1036.62H602.932V1066.19Z" fill="white"/>
<path d="M652.033 1036.62V1066.19H649.213C648.777 1066.19 648.409 1066.12 648.11 1065.99C647.824 1065.84 647.544 1065.59 647.272 1065.25L631.843 1045.54C631.925 1046.44 631.966 1047.27 631.966 1048.03V1066.19H627.123V1036.62H630.004C630.236 1036.62 630.433 1036.64 630.597 1036.66C630.774 1036.68 630.924 1036.72 631.046 1036.79C631.183 1036.84 631.312 1036.93 631.435 1037.05C631.557 1037.16 631.693 1037.31 631.843 1037.5L647.333 1057.3C647.292 1056.82 647.258 1056.35 647.231 1055.89C647.204 1055.42 647.19 1054.99 647.19 1054.6V1036.62H652.033Z" fill="white"/>
<path d="M681.706 1041V1049.75H692.782V1054.15H681.706V1066.19H676.188V1036.62H694.825V1041H681.706Z" fill="white"/>
<path d="M744.813 1051.41C744.813 1053.57 744.452 1055.59 743.73 1057.44C743.021 1059.28 742.013 1060.88 740.705 1062.22C739.397 1063.57 737.824 1064.63 735.985 1065.39C734.146 1066.14 732.102 1066.52 729.854 1066.52C727.62 1066.52 725.583 1066.14 723.744 1065.39C721.905 1064.63 720.324 1063.57 719.003 1062.22C717.695 1060.88 716.68 1059.28 715.958 1057.44C715.236 1055.59 714.875 1053.57 714.875 1051.41C714.875 1049.24 715.236 1047.24 715.958 1045.39C716.68 1043.54 717.695 1041.94 719.003 1040.59C720.324 1039.24 721.905 1038.19 723.744 1037.44C725.583 1036.68 727.62 1036.29 729.854 1036.29C731.353 1036.29 732.763 1036.47 734.084 1036.83C735.406 1037.17 736.618 1037.66 737.722 1038.3C738.825 1038.93 739.813 1039.7 740.685 1040.61C741.57 1041.51 742.32 1042.52 742.933 1043.64C743.546 1044.75 744.009 1045.97 744.322 1047.28C744.649 1048.59 744.813 1049.96 744.813 1051.41ZM739.193 1051.41C739.193 1049.78 738.975 1048.33 738.539 1047.05C738.103 1045.76 737.483 1044.66 736.679 1043.76C735.876 1042.86 734.895 1042.17 733.737 1041.69C732.592 1041.22 731.298 1040.98 729.854 1040.98C728.41 1040.98 727.109 1041.22 725.951 1041.69C724.807 1042.17 723.826 1042.86 723.008 1043.76C722.204 1044.66 721.585 1045.76 721.149 1047.05C720.713 1048.33 720.495 1049.78 720.495 1051.41C720.495 1053.03 720.713 1054.49 721.149 1055.78C721.585 1057.06 722.204 1058.16 723.008 1059.06C723.826 1059.94 724.807 1060.62 725.951 1061.1C727.109 1061.58 728.41 1061.82 729.854 1061.82C731.298 1061.82 732.592 1061.58 733.737 1061.1C734.895 1060.62 735.876 1059.94 736.679 1059.06C737.483 1058.16 738.103 1057.06 738.539 1055.78C738.975 1054.49 739.193 1053.03 739.193 1051.41Z" fill="white"/>
<path d="M776.145 1050.69C777.18 1050.69 778.079 1050.56 778.842 1050.3C779.619 1050.04 780.252 1049.69 780.743 1049.24C781.247 1048.78 781.622 1048.23 781.867 1047.6C782.112 1046.98 782.235 1046.29 782.235 1045.54C782.235 1044.04 781.737 1042.89 780.743 1042.08C779.762 1041.28 778.257 1040.88 776.227 1040.88H772.712V1050.69H776.145ZM790.286 1066.19H785.32C784.38 1066.19 783.699 1065.82 783.277 1065.09L777.064 1055.62C776.833 1055.27 776.574 1055.01 776.288 1054.86C776.015 1054.71 775.607 1054.64 775.062 1054.64H772.712V1066.19H767.215V1036.62H776.227C778.229 1036.62 779.946 1036.83 781.376 1037.26C782.82 1037.66 783.999 1038.24 784.912 1038.99C785.838 1039.74 786.519 1040.64 786.955 1041.69C787.391 1042.73 787.609 1043.87 787.609 1045.13C787.609 1046.12 787.459 1047.06 787.159 1047.95C786.873 1048.84 786.451 1049.64 785.892 1050.36C785.348 1051.09 784.666 1051.72 783.849 1052.27C783.045 1052.81 782.126 1053.24 781.09 1053.55C781.444 1053.76 781.771 1054 782.071 1054.29C782.371 1054.56 782.643 1054.89 782.889 1055.27L790.286 1066.19Z" fill="white"/>
<path d="M843.094 1036.62V1066.19H838.251V1047.09C838.251 1046.33 838.292 1045.5 838.374 1044.62L829.443 1061.41C829.021 1062.21 828.374 1062.61 827.502 1062.61H826.725C825.854 1062.61 825.206 1062.21 824.784 1061.41L815.752 1044.56C815.793 1045.01 815.827 1045.45 815.854 1045.89C815.881 1046.32 815.895 1046.72 815.895 1047.09V1066.19H811.052V1036.62H815.2C815.445 1036.62 815.656 1036.63 815.833 1036.64C816.01 1036.66 816.167 1036.69 816.303 1036.74C816.453 1036.8 816.583 1036.89 816.692 1037.01C816.814 1037.13 816.93 1037.3 817.039 1037.5L825.888 1053.92C826.119 1054.36 826.33 1054.81 826.521 1055.27C826.725 1055.74 826.923 1056.21 827.114 1056.7C827.304 1056.2 827.502 1055.72 827.706 1055.25C827.911 1054.77 828.129 1054.32 828.36 1053.88L837.086 1037.5C837.195 1037.3 837.311 1037.13 837.433 1037.01C837.556 1036.89 837.685 1036.8 837.822 1036.74C837.972 1036.69 838.135 1036.66 838.312 1036.64C838.489 1036.63 838.7 1036.62 838.946 1036.62H843.094Z" fill="white"/>
<path d="M882.874 1055.03L879.277 1045.19C879.1 1044.75 878.916 1044.24 878.726 1043.64C878.535 1043.04 878.344 1042.39 878.153 1041.69C877.976 1042.39 877.792 1043.04 877.602 1043.66C877.411 1044.26 877.227 1044.78 877.05 1045.23L873.474 1055.03H882.874ZM892.581 1066.19H888.33C887.853 1066.19 887.465 1066.08 887.165 1065.84C886.866 1065.6 886.641 1065.3 886.491 1064.94L884.284 1058.91H872.043L869.836 1064.94C869.727 1065.26 869.516 1065.54 869.203 1065.8C868.889 1066.06 868.501 1066.19 868.038 1066.19H863.746L875.374 1036.62H880.973L892.581 1066.19Z" fill="white"/>
<path d="M930.98 1041.14H922.07V1066.19H916.573V1041.14H907.663V1036.62H930.98V1041.14Z" fill="white"/>
<path d="M957.938 1066.19H952.421V1036.62H957.938V1066.19Z" fill="white"/>
<path d="M1010.31 1051.41C1010.31 1053.57 1009.95 1055.59 1009.23 1057.44C1008.52 1059.28 1007.51 1060.88 1006.2 1062.22C1004.89 1063.57 1003.32 1064.63 1001.48 1065.39C999.642 1066.14 997.598 1066.52 995.35 1066.52C993.116 1066.52 991.079 1066.14 989.24 1065.39C987.401 1064.63 985.82 1063.57 984.499 1062.22C983.191 1060.88 982.176 1059.28 981.454 1057.44C980.732 1055.59 980.371 1053.57 980.371 1051.41C980.371 1049.24 980.732 1047.24 981.454 1045.39C982.176 1043.54 983.191 1041.94 984.499 1040.59C985.82 1039.24 987.401 1038.19 989.24 1037.44C991.079 1036.68 993.116 1036.29 995.35 1036.29C996.849 1036.29 998.259 1036.47 999.58 1036.83C1000.9 1037.17 1002.11 1037.66 1003.22 1038.3C1004.32 1038.93 1005.31 1039.7 1006.18 1040.61C1007.07 1041.51 1007.82 1042.52 1008.43 1043.64C1009.04 1044.75 1009.5 1045.97 1009.82 1047.28C1010.15 1048.59 1010.31 1049.96 1010.31 1051.41ZM1004.69 1051.41C1004.69 1049.78 1004.47 1048.33 1004.04 1047.05C1003.6 1045.76 1002.98 1044.66 1002.18 1043.76C1001.37 1042.86 1000.39 1042.17 999.233 1041.69C998.088 1041.22 996.794 1040.98 995.35 1040.98C993.906 1040.98 992.605 1041.22 991.447 1041.69C990.303 1042.17 989.322 1042.86 988.504 1043.76C987.7 1044.66 987.081 1045.76 986.645 1047.05C986.209 1048.33 985.991 1049.78 985.991 1051.41C985.991 1053.03 986.209 1054.49 986.645 1055.78C987.081 1057.06 987.7 1058.16 988.504 1059.06C989.322 1059.94 990.303 1060.62 991.447 1061.1C992.605 1061.58 993.906 1061.82 995.35 1061.82C996.794 1061.82 998.088 1061.58 999.233 1061.1C1000.39 1060.62 1001.37 1059.94 1002.18 1059.06C1002.98 1058.16 1003.6 1057.06 1004.04 1055.78C1004.47 1054.49 1004.69 1053.03 1004.69 1051.41Z" fill="white"/>
<path d="M1057.62 1036.62V1066.19H1054.8C1054.37 1066.19 1054 1066.12 1053.7 1065.99C1053.41 1065.84 1053.13 1065.59 1052.86 1065.25L1037.43 1045.54C1037.51 1046.44 1037.55 1047.27 1037.55 1048.03V1066.19H1032.71V1036.62H1035.59C1035.82 1036.62 1036.02 1036.64 1036.18 1036.66C1036.36 1036.68 1036.51 1036.72 1036.63 1036.79C1036.77 1036.84 1036.9 1036.93 1037.02 1037.05C1037.15 1037.16 1037.28 1037.31 1037.43 1037.5L1052.92 1057.3C1052.88 1056.82 1052.85 1056.35 1052.82 1055.89C1052.79 1055.42 1052.78 1054.99 1052.78 1054.6V1036.62H1057.62Z" fill="white"/>
<path d="M1080.9 1071.2C1080.65 1071 1080.53 1070.75 1080.53 1070.45C1080.53 1070.34 1080.56 1070.21 1080.63 1070.08C1080.71 1069.94 1080.81 1069.82 1080.92 1069.71C1081.07 1069.55 1081.25 1069.34 1081.47 1069.1C1081.69 1068.86 1081.91 1068.59 1082.12 1068.28C1082.34 1067.98 1082.54 1067.64 1082.72 1067.28C1082.91 1066.92 1083.05 1066.54 1083.15 1066.13C1082.71 1066.13 1082.31 1066.06 1081.96 1065.91C1081.61 1065.74 1081.3 1065.52 1081.04 1065.25C1080.8 1064.98 1080.6 1064.66 1080.45 1064.29C1080.31 1063.92 1080.24 1063.52 1080.24 1063.08C1080.24 1062.7 1080.31 1062.35 1080.45 1062.02C1080.6 1061.68 1080.8 1061.39 1081.06 1061.14C1081.32 1060.88 1081.63 1060.68 1082 1060.55C1082.37 1060.4 1082.77 1060.32 1083.21 1060.32C1083.72 1060.32 1084.17 1060.42 1084.56 1060.61C1084.95 1060.79 1085.27 1061.04 1085.52 1061.37C1085.77 1061.68 1085.97 1062.05 1086.09 1062.47C1086.22 1062.88 1086.29 1063.32 1086.29 1063.78C1086.29 1064.43 1086.19 1065.12 1085.99 1065.84C1085.8 1066.57 1085.51 1067.29 1085.13 1068.01C1084.75 1068.73 1084.27 1069.44 1083.7 1070.12C1083.14 1070.8 1082.5 1071.43 1081.78 1072L1080.9 1071.2Z" fill="white"/>
<path d="M1126.24 1061.65V1066.19H1108.93V1036.62H1114.43V1061.65H1126.24Z" fill="white"/>
<path d="M1153.25 1041V1049.2H1163.6V1053.43H1153.25V1061.8H1166.37V1066.19H1147.74V1036.62H1166.37V1041H1153.25Z" fill="white"/>
<path d="M1204.43 1055.03L1200.84 1045.19C1200.66 1044.75 1200.48 1044.24 1200.28 1043.64C1200.09 1043.04 1199.9 1042.39 1199.71 1041.69C1199.54 1042.39 1199.35 1043.04 1199.16 1043.66C1198.97 1044.26 1198.79 1044.78 1198.61 1045.23L1195.03 1055.03H1204.43ZM1214.14 1066.19H1209.89C1209.41 1066.19 1209.02 1066.08 1208.72 1065.84C1208.42 1065.6 1208.2 1065.3 1208.05 1064.94L1205.84 1058.91H1193.6L1191.4 1064.94C1191.29 1065.26 1191.07 1065.54 1190.76 1065.8C1190.45 1066.06 1190.06 1066.19 1189.6 1066.19H1185.31L1196.93 1036.62H1202.53L1214.14 1066.19Z" fill="white"/>
<path d="M1261.01 1051.41C1261.01 1053.57 1260.65 1055.57 1259.93 1057.38C1259.21 1059.19 1258.19 1060.75 1256.88 1062.06C1255.58 1063.37 1254 1064.39 1252.16 1065.11C1250.32 1065.83 1248.28 1066.19 1246.03 1066.19H1234.77V1036.62H1246.03C1248.28 1036.62 1250.32 1036.99 1252.16 1037.73C1254 1038.45 1255.58 1039.46 1256.88 1040.77C1258.19 1042.07 1259.21 1043.62 1259.93 1045.44C1260.65 1047.25 1261.01 1049.24 1261.01 1051.41ZM1255.37 1051.41C1255.37 1049.78 1255.15 1048.33 1254.72 1047.05C1254.3 1045.76 1253.68 1044.67 1252.86 1043.78C1252.05 1042.88 1251.07 1042.19 1249.92 1041.71C1248.77 1041.24 1247.48 1041 1246.03 1041H1240.29V1061.82H1246.03C1247.48 1061.82 1248.77 1061.58 1249.92 1061.1C1251.07 1060.62 1252.05 1059.94 1252.86 1059.06C1253.68 1058.16 1254.3 1057.06 1254.72 1055.78C1255.15 1054.49 1255.37 1053.03 1255.37 1051.41Z" fill="white"/>
<path d="M1299.17 1042C1299.01 1042.29 1298.83 1042.5 1298.64 1042.63C1298.47 1042.76 1298.24 1042.82 1297.97 1042.82C1297.68 1042.82 1297.37 1042.72 1297.03 1042.51C1296.7 1042.29 1296.31 1042.05 1295.84 1041.8C1295.38 1041.54 1294.84 1041.3 1294.21 1041.1C1293.6 1040.88 1292.87 1040.77 1292.02 1040.77C1291.26 1040.77 1290.59 1040.87 1290.02 1041.06C1289.45 1041.24 1288.96 1041.49 1288.57 1041.82C1288.19 1042.14 1287.9 1042.54 1287.71 1043C1287.52 1043.45 1287.42 1043.95 1287.42 1044.5C1287.42 1045.19 1287.61 1045.77 1288 1046.23C1288.39 1046.7 1288.91 1047.09 1289.55 1047.42C1290.19 1047.75 1290.92 1048.04 1291.74 1048.3C1292.55 1048.56 1293.39 1048.84 1294.25 1049.14C1295.11 1049.42 1295.95 1049.76 1296.76 1050.16C1297.58 1050.54 1298.31 1051.03 1298.95 1051.63C1299.59 1052.22 1300.1 1052.94 1300.48 1053.8C1300.88 1054.66 1301.07 1055.7 1301.07 1056.93C1301.07 1058.26 1300.84 1059.52 1300.38 1060.69C1299.93 1061.85 1299.26 1062.87 1298.38 1063.74C1297.51 1064.6 1296.44 1065.28 1295.17 1065.78C1293.9 1066.27 1292.45 1066.52 1290.82 1066.52C1289.88 1066.52 1288.95 1066.42 1288.04 1066.23C1287.12 1066.06 1286.25 1065.8 1285.4 1065.46C1284.57 1065.12 1283.79 1064.71 1283.05 1064.23C1282.31 1063.75 1281.66 1063.22 1281.09 1062.63L1282.7 1060C1282.84 1059.81 1283.02 1059.65 1283.23 1059.53C1283.45 1059.39 1283.68 1059.32 1283.93 1059.32C1284.27 1059.32 1284.64 1059.46 1285.03 1059.75C1285.43 1060.02 1285.9 1060.33 1286.44 1060.67C1286.99 1061.01 1287.62 1061.33 1288.34 1061.61C1289.08 1061.88 1289.96 1062.02 1290.98 1062.02C1292.55 1062.02 1293.76 1061.65 1294.62 1060.92C1295.48 1060.17 1295.9 1059.1 1295.9 1057.71C1295.9 1056.93 1295.71 1056.29 1295.31 1055.8C1294.93 1055.31 1294.42 1054.9 1293.78 1054.58C1293.14 1054.24 1292.41 1053.95 1291.59 1053.72C1290.78 1053.49 1289.94 1053.23 1289.1 1052.96C1288.25 1052.69 1287.42 1052.36 1286.61 1051.98C1285.79 1051.6 1285.06 1051.1 1284.42 1050.49C1283.78 1049.87 1283.26 1049.11 1282.87 1048.2C1282.49 1047.27 1282.29 1046.13 1282.29 1044.78C1282.29 1043.7 1282.51 1042.65 1282.93 1041.63C1283.36 1040.61 1283.99 1039.7 1284.81 1038.91C1285.63 1038.12 1286.63 1037.49 1287.83 1037.01C1289.03 1036.53 1290.41 1036.29 1291.96 1036.29C1293.7 1036.29 1295.31 1036.57 1296.78 1037.11C1298.25 1037.66 1299.51 1038.42 1300.54 1039.4L1299.17 1042Z" fill="white"/>
<path d="M415.675 902.404C437.789 893.446 451.479 875.005 451.479 847.606C451.479 827.848 443.844 811.777 431.734 801.766C419.097 791.755 402.512 786.75 383.82 786.75H308V978.804H347.753V909.78H376.448L413.042 978.804H456.217L415.675 902.404ZM380.397 824.423C395.667 824.423 411.199 829.955 411.199 848.397C411.199 856.564 408.303 862.886 402.248 866.838C396.193 871.053 389.085 873.161 380.661 873.161H347.49V824.423H380.397Z" fill="white"/>
<path d="M466.324 913.732C466.324 926.378 469.747 937.969 476.065 948.507C482.383 959.045 490.808 966.949 501.601 973.008C512.658 978.804 524.505 981.702 537.668 981.702C550.568 981.702 562.678 978.804 573.736 972.745C584.529 966.949 593.217 958.782 599.799 947.98C606.117 937.442 609.276 925.851 609.276 912.942C609.276 900.033 606.117 888.441 599.799 878.166C593.48 867.628 584.793 859.462 573.999 853.666C563.205 847.606 551.095 844.708 538.195 844.708C525.032 844.708 513.185 847.87 502.128 853.666C491.071 859.725 482.383 868.155 476.065 878.693C469.747 889.231 466.324 900.823 466.324 913.732ZM514.765 889.231C521.083 882.908 528.717 879.747 537.668 879.747C546.883 879.747 554.517 882.908 560.836 889.231C567.154 895.554 570.05 903.457 570.05 913.205C570.05 922.953 567.154 931.12 560.836 937.179C554.517 943.502 546.883 946.663 537.932 946.663C528.717 946.663 521.083 943.502 514.765 937.179C508.709 930.856 505.55 922.953 505.55 913.205C505.55 903.457 508.709 895.554 514.765 889.231Z" fill="white"/>
<path d="M683.315 981.702C700.164 981.702 714.117 976.169 722.541 968.002C730.702 959.836 735.178 949.298 735.178 938.233C735.178 918.474 721.225 903.457 695.425 898.452L677.26 894.5C670.415 893.183 666.992 890.022 666.992 885.016C666.992 878.957 672.784 873.951 681.472 873.951C692.003 873.951 698.584 880.011 700.427 889.495L733.598 882.382C732.808 876.059 730.176 869.473 724.384 862.623C716.486 852.875 702.006 844.708 681.209 844.708C666.992 844.708 655.146 848.924 645.405 857.354C635.927 865.521 631.189 875.795 631.189 887.65C631.189 906.619 643.825 920.318 668.835 925.851L685.421 929.539C693.845 931.383 698.058 935.335 698.058 940.867C698.058 946.4 692.792 952.196 682.788 952.196C676.733 952.196 671.994 950.351 668.045 946.663C664.36 943.238 662.254 939.023 661.727 934.281L628.029 941.394C628.556 947.717 630.925 954.567 636.98 961.68C639.876 965.631 643.299 968.793 647.511 971.691C655.409 977.487 668.572 981.702 683.315 981.702Z" fill="white"/>
<path d="M799.525 981.438C816.637 981.438 829.537 974.852 838.488 962.47H839.014C839.014 970.11 839.278 975.379 839.804 978.804H875.345C874.818 972.745 874.292 965.631 874.292 957.728V897.662C874.292 862.886 850.335 844.445 817.953 844.708C808.476 844.708 799.788 846.289 791.627 849.187C783.203 852.085 776.095 856.827 770.303 863.15C764.248 869.473 760.562 877.113 758.982 886.07L792.68 893.71C795.576 882.645 804.527 875.795 816.111 875.795C829.274 875.795 836.645 882.908 836.645 892.129C836.645 897.662 833.223 901.086 826.378 901.086H813.741C802.684 901.086 792.943 902.404 782.413 906.355C767.407 911.624 756.087 922.426 756.087 941.131V942.184C756.087 953.776 760.299 963.26 768.986 970.637C777.411 977.75 787.678 981.438 799.525 981.438ZM810.582 953.513C801.631 953.513 794.523 948.771 794.523 940.077C794.523 935.335 796.629 931.646 800.841 929.012C804.79 926.377 809.002 925.06 813.741 925.06H836.645V928.222C836.645 935.071 834.276 941.131 829.537 945.873C824.798 950.878 818.48 953.513 810.582 953.513Z" fill="white"/>
<path d="M976.866 978.804L1030.57 847.87H990.029L957.647 935.335L925.529 847.87H884.987L938.166 978.804H976.866Z" fill="white"/>
<path d="M1075.64 981.438C1092.76 981.438 1105.65 974.852 1114.61 962.47H1115.13C1115.13 970.11 1115.4 975.379 1115.92 978.804H1151.46C1150.94 972.745 1150.41 965.631 1150.41 957.728V897.662C1150.41 862.886 1126.45 844.445 1094.07 844.708C1084.59 844.708 1075.91 846.289 1067.75 849.187C1059.32 852.085 1052.21 856.827 1046.42 863.15C1040.37 869.473 1036.68 877.113 1035.1 886.07L1068.8 893.71C1071.69 882.645 1080.64 875.795 1092.23 875.795C1105.39 875.795 1112.76 882.908 1112.76 892.129C1112.76 897.662 1109.34 901.086 1102.5 901.086H1089.86C1078.8 901.086 1069.06 902.404 1058.53 906.355C1043.52 911.624 1032.2 922.426 1032.2 941.131V942.184C1032.2 953.776 1036.42 963.26 1045.1 970.637C1053.53 977.75 1063.8 981.438 1075.64 981.438ZM1086.7 953.513C1077.75 953.513 1070.64 948.771 1070.64 940.077C1070.64 935.335 1072.75 931.646 1076.96 929.012C1080.91 926.377 1085.12 925.06 1089.86 925.06H1112.76V928.222C1112.76 935.071 1110.39 941.131 1105.65 945.873C1100.92 950.878 1094.6 953.513 1086.7 953.513Z" fill="white"/>
<path d="M1307 978.804V897.398C1307 870.526 1292.78 845.235 1259.61 845.235C1255.93 845.235 1250.92 846.026 1243.03 848.397C1235.39 850.768 1227.23 856.827 1222.49 864.994H1222.23V847.87H1184.32V978.804H1222.49V906.092C1222.49 898.979 1224.6 892.919 1228.55 887.914C1232.5 883.172 1238.29 880.801 1245.92 880.801C1261.19 880.801 1268.83 890.812 1268.83 906.092V978.804H1307Z" fill="white"/>
<path d="M824.107 569.025H723.147L857.114 720.184C841.581 724.07 825.272 726.013 808.575 726.013C695.965 726.013 604.712 634.696 604.712 522.007C604.712 494.029 610.149 467.605 620.245 443.513H824.107C858.667 443.513 887.014 471.491 887.014 506.463C887.014 541.436 858.667 569.025 824.107 569.025Z" fill="url(#paint0_linear_201_277)"/>
<path d="M1012.44 522.007C1012.44 594.283 974.772 658.011 918.079 694.149L858.667 626.924C911.089 612.158 949.92 563.585 949.92 506.075C949.92 436.907 893.615 380.562 824.496 380.562H661.406C698.683 342.092 750.717 318 808.575 318C921.185 318 1012.44 409.317 1012.44 522.007Z" fill="url(#paint1_linear_201_277)"/>
<defs>
<linearGradient id="paint0_linear_201_277" x1="559.213" y1="232.699" x2="963.291" y2="1160" gradientUnits="userSpaceOnUse">
<stop offset="0.484375" stop-color="white"/>
<stop offset="0.895833" stop-color="white"/>
</linearGradient>
<linearGradient id="paint1_linear_201_277" x1="770.299" y1="308.509" x2="974.291" y2="661.585" gradientUnits="userSpaceOnUse">
<stop stop-color="white"/>
</linearGradient>
</defs>
</svg>
