<svg width="1615" height="1515" viewBox="0 0 1615 1515" fill="none" xmlns="http://www.w3.org/2000/svg">
<rect width="1615" height="1515" fill="white"/>
<rect width="1615" height="1515" fill="white"/>
<path d="M317.572 1078.08V1086.26H327.893V1090.48H317.572V1098.82H330.666V1103.21H312.066V1073.72H330.666V1078.08H317.572Z" fill="#2A2A2A"/>
<path d="M378.339 1073.72L366.428 1103.21H361.471L349.561 1073.72H353.966C354.442 1073.72 354.829 1073.83 355.129 1074.06C355.428 1074.29 355.652 1074.59 355.802 1074.96L362.756 1092.95C362.988 1093.53 363.205 1094.18 363.409 1094.89C363.627 1095.58 363.831 1096.31 364.021 1097.07C364.184 1096.31 364.361 1095.58 364.551 1094.89C364.742 1094.18 364.952 1093.53 365.183 1092.95L372.098 1074.96C372.206 1074.65 372.417 1074.36 372.73 1074.1C373.056 1073.85 373.45 1073.72 373.913 1073.72H378.339Z" fill="#2A2A2A"/>
<path d="M404.438 1078.08V1086.26H414.758V1090.48H404.438V1098.82H417.532V1103.21H398.931V1073.72H417.532V1078.08H404.438Z" fill="#2A2A2A"/>
<path d="M464.796 1073.72V1103.21H461.982C461.546 1103.21 461.179 1103.14 460.88 1103C460.595 1102.85 460.316 1102.61 460.044 1102.27L444.645 1082.61C444.727 1083.51 444.768 1084.34 444.768 1085.1V1103.21H439.934V1073.72H442.81C443.041 1073.72 443.238 1073.73 443.401 1073.76C443.578 1073.77 443.728 1073.81 443.85 1073.88C443.986 1073.93 444.115 1074.02 444.238 1074.14C444.36 1074.25 444.496 1074.4 444.645 1074.59L460.105 1094.34C460.064 1093.86 460.03 1093.39 460.003 1092.93C459.976 1092.47 459.962 1092.04 459.962 1091.64V1073.72H464.796Z" fill="#2A2A2A"/>
<path d="M509.503 1078.22H500.611V1103.21H495.125V1078.22H486.232V1073.72H509.503V1078.22Z" fill="#2A2A2A"/>
<path d="M546.527 1079.08C546.364 1079.37 546.188 1079.58 545.997 1079.71C545.82 1079.83 545.596 1079.9 545.324 1079.9C545.039 1079.9 544.726 1079.79 544.386 1079.59C544.06 1079.37 543.665 1079.13 543.203 1078.88C542.741 1078.62 542.197 1078.39 541.571 1078.18C540.96 1077.96 540.232 1077.86 539.389 1077.86C538.628 1077.86 537.961 1077.95 537.39 1078.14C536.819 1078.32 536.337 1078.57 535.942 1078.9C535.562 1079.22 535.276 1079.62 535.086 1080.08C534.895 1080.53 534.8 1081.02 534.8 1081.57C534.8 1082.26 534.99 1082.84 535.371 1083.3C535.765 1083.76 536.282 1084.16 536.921 1084.48C537.56 1084.81 538.288 1085.1 539.104 1085.36C539.919 1085.62 540.756 1085.9 541.612 1086.2C542.469 1086.48 543.305 1086.82 544.121 1087.22C544.937 1087.6 545.664 1088.09 546.303 1088.69C546.942 1089.27 547.452 1089.99 547.833 1090.85C548.227 1091.7 548.424 1092.74 548.424 1093.97C548.424 1095.3 548.193 1096.55 547.731 1097.72C547.282 1098.88 546.616 1099.89 545.732 1100.76C544.862 1101.62 543.794 1102.3 542.53 1102.8C541.265 1103.29 539.817 1103.53 538.186 1103.53C537.248 1103.53 536.323 1103.44 535.412 1103.25C534.501 1103.07 533.624 1102.81 532.781 1102.47C531.952 1102.13 531.17 1101.73 530.435 1101.25C529.701 1100.77 529.049 1100.24 528.477 1099.66L530.089 1097.03C530.225 1096.84 530.401 1096.68 530.619 1096.56C530.837 1096.42 531.068 1096.35 531.312 1096.35C531.652 1096.35 532.02 1096.5 532.414 1096.78C532.808 1097.06 533.277 1097.36 533.821 1097.7C534.365 1098.04 534.997 1098.35 535.718 1098.64C536.452 1098.91 537.329 1099.05 538.349 1099.05C539.913 1099.05 541.123 1098.68 541.979 1097.95C542.836 1097.2 543.264 1096.13 543.264 1094.74C543.264 1093.97 543.067 1093.34 542.673 1092.85C542.292 1092.36 541.782 1091.95 541.143 1091.62C540.504 1091.28 539.777 1091 538.961 1090.77C538.145 1090.54 537.316 1090.28 536.473 1090.01C535.629 1089.74 534.8 1089.41 533.984 1089.03C533.168 1088.65 532.441 1088.16 531.802 1087.54C531.163 1086.93 530.646 1086.17 530.252 1085.26C529.871 1084.34 529.681 1083.2 529.681 1081.85C529.681 1080.78 529.892 1079.73 530.313 1078.71C530.748 1077.69 531.374 1076.79 532.189 1076C533.005 1075.21 534.011 1074.58 535.208 1074.1C536.405 1073.63 537.778 1073.39 539.328 1073.39C541.068 1073.39 542.673 1073.66 544.141 1074.21C545.61 1074.75 546.861 1075.51 547.894 1076.49L546.527 1079.08Z" fill="#2A2A2A"/>
<path d="M569.873 1108.2C569.629 1108 569.506 1107.75 569.506 1107.45C569.506 1107.34 569.54 1107.22 569.608 1107.08C569.69 1106.95 569.785 1106.82 569.894 1106.72C570.043 1106.55 570.227 1106.35 570.444 1106.1C570.662 1105.87 570.879 1105.6 571.097 1105.29C571.315 1104.99 571.512 1104.66 571.688 1104.29C571.879 1103.94 572.022 1103.55 572.117 1103.15C571.682 1103.15 571.287 1103.07 570.934 1102.92C570.58 1102.76 570.274 1102.54 570.016 1102.27C569.771 1102 569.574 1101.68 569.425 1101.31C569.289 1100.94 569.221 1100.54 569.221 1100.11C569.221 1099.73 569.289 1099.37 569.425 1099.05C569.574 1098.71 569.778 1098.41 570.036 1098.17C570.295 1097.91 570.608 1097.71 570.975 1097.58C571.342 1097.43 571.743 1097.35 572.178 1097.35C572.695 1097.35 573.143 1097.45 573.524 1097.64C573.918 1097.82 574.238 1098.07 574.483 1098.39C574.741 1098.71 574.931 1099.07 575.054 1099.5C575.19 1099.9 575.258 1100.34 575.258 1100.8C575.258 1101.45 575.156 1102.14 574.952 1102.86C574.761 1103.58 574.476 1104.3 574.095 1105.02C573.714 1105.74 573.239 1106.44 572.667 1107.12C572.11 1107.8 571.471 1108.43 570.75 1109L569.873 1108.2Z" fill="#2A2A2A"/>
<path d="M603.357 1103.21H597.851V1073.72H603.357V1103.21Z" fill="#2A2A2A"/>
<path d="M652.363 1073.72V1103.21H649.548C649.113 1103.21 648.746 1103.14 648.447 1103C648.161 1102.85 647.883 1102.61 647.611 1102.27L632.212 1082.61C632.294 1083.51 632.334 1084.34 632.334 1085.1V1103.21H627.501V1073.72H630.376C630.608 1073.72 630.805 1073.73 630.968 1073.76C631.145 1073.77 631.294 1073.81 631.417 1073.88C631.553 1073.93 631.682 1074.02 631.804 1074.14C631.926 1074.25 632.062 1074.4 632.212 1074.59L647.672 1094.34C647.631 1093.86 647.597 1093.39 647.57 1092.93C647.543 1092.47 647.529 1092.04 647.529 1091.64V1073.72H652.363Z" fill="#2A2A2A"/>
<path d="M681.977 1078.08V1086.81H693.032V1091.19H681.977V1103.21H676.47V1073.72H695.071V1078.08H681.977Z" fill="#2A2A2A"/>
<path d="M744.961 1088.46C744.961 1090.62 744.601 1092.63 743.88 1094.48C743.173 1096.31 742.167 1097.9 740.862 1099.25C739.556 1100.6 737.986 1101.65 736.15 1102.41C734.315 1103.16 732.275 1103.53 730.032 1103.53C727.802 1103.53 725.769 1103.16 723.934 1102.41C722.098 1101.65 720.521 1100.6 719.202 1099.25C717.897 1097.9 716.884 1096.31 716.163 1094.48C715.442 1092.63 715.082 1090.62 715.082 1088.46C715.082 1086.3 715.442 1084.3 716.163 1082.47C716.884 1080.62 717.897 1079.02 719.202 1077.67C720.521 1076.33 722.098 1075.28 723.934 1074.53C725.769 1073.77 727.802 1073.39 730.032 1073.39C731.527 1073.39 732.935 1073.57 734.254 1073.92C735.573 1074.26 736.783 1074.75 737.884 1075.39C738.985 1076.01 739.971 1076.78 740.841 1077.69C741.725 1078.59 742.473 1079.6 743.085 1080.71C743.697 1081.83 744.159 1083.04 744.472 1084.34C744.798 1085.65 744.961 1087.02 744.961 1088.46ZM739.353 1088.46C739.353 1086.84 739.135 1085.4 738.7 1084.12C738.265 1082.83 737.646 1081.73 736.844 1080.83C736.042 1079.94 735.063 1079.25 733.907 1078.77C732.765 1078.3 731.473 1078.06 730.032 1078.06C728.591 1078.06 727.292 1078.3 726.136 1078.77C724.994 1079.25 724.015 1079.94 723.199 1080.83C722.397 1081.73 721.778 1082.83 721.343 1084.12C720.908 1085.4 720.691 1086.84 720.691 1088.46C720.691 1090.08 720.908 1091.53 721.343 1092.83C721.778 1094.1 722.397 1095.19 723.199 1096.09C724.015 1096.97 724.994 1097.65 726.136 1098.13C727.292 1098.61 728.591 1098.84 730.032 1098.84C731.473 1098.84 732.765 1098.61 733.907 1098.13C735.063 1097.65 736.042 1096.97 736.844 1096.09C737.646 1095.19 738.265 1094.1 738.7 1092.83C739.135 1091.53 739.353 1090.08 739.353 1088.46Z" fill="#2A2A2A"/>
<path d="M776.232 1087.75C777.266 1087.75 778.163 1087.62 778.925 1087.36C779.7 1087.1 780.332 1086.75 780.821 1086.3C781.324 1085.84 781.698 1085.29 781.943 1084.67C782.188 1084.04 782.31 1083.36 782.31 1082.61C782.31 1081.11 781.814 1079.96 780.821 1079.16C779.842 1078.36 778.34 1077.96 776.314 1077.96H772.806V1087.75H776.232ZM790.346 1103.21H785.39C784.452 1103.21 783.772 1102.84 783.35 1102.11L777.15 1092.66C776.919 1092.31 776.661 1092.06 776.375 1091.91C776.103 1091.76 775.695 1091.68 775.151 1091.68H772.806V1103.21H767.32V1073.72H776.314C778.313 1073.72 780.026 1073.93 781.454 1074.35C782.895 1074.76 784.071 1075.33 784.982 1076.08C785.907 1076.83 786.586 1077.73 787.022 1078.77C787.457 1079.81 787.674 1080.95 787.674 1082.2C787.674 1083.19 787.525 1084.13 787.225 1085.01C786.94 1085.9 786.518 1086.7 785.961 1087.42C785.417 1088.14 784.737 1088.77 783.921 1089.32C783.119 1089.86 782.201 1090.29 781.168 1090.6C781.522 1090.81 781.848 1091.05 782.147 1091.34C782.446 1091.61 782.718 1091.94 782.963 1092.32L790.346 1103.21Z" fill="#2A2A2A"/>
<path d="M843.051 1073.72V1103.21H838.217V1084.16C838.217 1083.4 838.258 1082.57 838.34 1081.69L829.427 1098.44C829.005 1099.24 828.36 1099.64 827.489 1099.64H826.714C825.844 1099.64 825.198 1099.24 824.777 1098.44L815.762 1081.63C815.803 1082.08 815.837 1082.52 815.864 1082.96C815.891 1083.39 815.905 1083.79 815.905 1084.16V1103.21H811.071V1073.72H815.211C815.456 1073.72 815.667 1073.72 815.844 1073.74C816.02 1073.75 816.177 1073.78 816.313 1073.84C816.462 1073.89 816.591 1073.98 816.7 1074.1C816.822 1074.23 816.938 1074.39 817.047 1074.59L825.878 1090.97C826.109 1091.41 826.32 1091.85 826.51 1092.32C826.714 1092.78 826.911 1093.25 827.102 1093.74C827.292 1093.24 827.489 1092.76 827.693 1092.3C827.897 1091.82 828.115 1091.36 828.346 1090.93L837.055 1074.59C837.164 1074.39 837.279 1074.23 837.401 1074.1C837.524 1073.98 837.653 1073.89 837.789 1073.84C837.939 1073.78 838.102 1073.75 838.279 1073.74C838.455 1073.72 838.666 1073.72 838.911 1073.72H843.051Z" fill="#2A2A2A"/>
<path d="M882.753 1092.07L879.164 1082.26C878.987 1081.83 878.803 1081.31 878.613 1080.71C878.423 1080.11 878.232 1079.47 878.042 1078.77C877.865 1079.47 877.682 1080.12 877.491 1080.73C877.301 1081.33 877.117 1081.85 876.941 1082.3L873.371 1092.07H882.753ZM892.441 1103.21H888.199C887.723 1103.21 887.336 1103.09 887.036 1102.86C886.737 1102.62 886.513 1102.32 886.363 1101.96L884.161 1095.95H871.944L869.741 1101.96C869.632 1102.28 869.422 1102.56 869.109 1102.82C868.796 1103.08 868.409 1103.21 867.946 1103.21H863.663L875.268 1073.72H880.857L892.441 1103.21Z" fill="#2A2A2A"/>
<path d="M930.765 1078.22H921.873V1103.21H916.386V1078.22H907.494V1073.72H930.765V1078.22Z" fill="#2A2A2A"/>
<path d="M957.671 1103.21H952.165V1073.72H957.671V1103.21Z" fill="#2A2A2A"/>
<path d="M1009.94 1088.46C1009.94 1090.62 1009.58 1092.63 1008.86 1094.48C1008.15 1096.31 1007.15 1097.9 1005.84 1099.25C1004.53 1100.6 1002.96 1101.65 1001.13 1102.41C999.293 1103.16 997.254 1103.53 995.01 1103.53C992.78 1103.53 990.748 1103.16 988.912 1102.41C987.076 1101.65 985.499 1100.6 984.18 1099.25C982.875 1097.9 981.862 1096.31 981.141 1094.48C980.421 1092.63 980.06 1090.62 980.06 1088.46C980.06 1086.3 980.421 1084.3 981.141 1082.47C981.862 1080.62 982.875 1079.02 984.18 1077.67C985.499 1076.33 987.076 1075.28 988.912 1074.53C990.748 1073.77 992.78 1073.39 995.01 1073.39C996.506 1073.39 997.913 1073.57 999.232 1073.92C1000.55 1074.26 1001.76 1074.75 1002.86 1075.39C1003.96 1076.01 1004.95 1076.78 1005.82 1077.69C1006.7 1078.59 1007.45 1079.6 1008.06 1080.71C1008.68 1081.83 1009.14 1083.04 1009.45 1084.34C1009.78 1085.65 1009.94 1087.02 1009.94 1088.46ZM1004.33 1088.46C1004.33 1086.84 1004.11 1085.4 1003.68 1084.12C1003.24 1082.83 1002.62 1081.73 1001.82 1080.83C1001.02 1079.94 1000.04 1079.25 998.885 1078.77C997.743 1078.3 996.452 1078.06 995.01 1078.06C993.569 1078.06 992.27 1078.3 991.115 1078.77C989.973 1079.25 988.994 1079.94 988.178 1080.83C987.376 1081.73 986.757 1082.83 986.322 1084.12C985.887 1085.4 985.669 1086.84 985.669 1088.46C985.669 1090.08 985.887 1091.53 986.322 1092.83C986.757 1094.1 987.376 1095.19 988.178 1096.09C988.994 1096.97 989.973 1097.65 991.115 1098.13C992.27 1098.61 993.569 1098.84 995.01 1098.84C996.452 1098.84 997.743 1098.61 998.885 1098.13C1000.04 1097.65 1001.02 1096.97 1001.82 1096.09C1002.62 1095.19 1003.24 1094.1 1003.68 1092.83C1004.11 1091.53 1004.33 1090.08 1004.33 1088.46Z" fill="#2A2A2A"/>
<path d="M1057.16 1073.72V1103.21H1054.35C1053.91 1103.21 1053.54 1103.14 1053.24 1103C1052.96 1102.85 1052.68 1102.61 1052.41 1102.27L1037.01 1082.61C1037.09 1083.51 1037.13 1084.34 1037.13 1085.1V1103.21H1032.3V1073.72H1035.17C1035.4 1073.72 1035.6 1073.73 1035.77 1073.76C1035.94 1073.77 1036.09 1073.81 1036.21 1073.88C1036.35 1073.93 1036.48 1074.02 1036.6 1074.14C1036.72 1074.25 1036.86 1074.4 1037.01 1074.59L1052.47 1094.34C1052.43 1093.86 1052.39 1093.39 1052.37 1092.93C1052.34 1092.47 1052.33 1092.04 1052.33 1091.64V1073.72H1057.16Z" fill="#2A2A2A"/>
<path d="M1080.39 1108.2C1080.15 1108 1080.02 1107.75 1080.02 1107.45C1080.02 1107.34 1080.06 1107.22 1080.13 1107.08C1080.21 1106.95 1080.3 1106.82 1080.41 1106.72C1080.56 1106.55 1080.74 1106.35 1080.96 1106.1C1081.18 1105.87 1081.4 1105.6 1081.61 1105.29C1081.83 1104.99 1082.03 1104.66 1082.21 1104.29C1082.4 1103.94 1082.54 1103.55 1082.63 1103.15C1082.2 1103.15 1081.8 1103.07 1081.45 1102.92C1081.1 1102.76 1080.79 1102.54 1080.53 1102.27C1080.29 1102 1080.09 1101.68 1079.94 1101.31C1079.81 1100.94 1079.74 1100.54 1079.74 1100.11C1079.74 1099.73 1079.81 1099.37 1079.94 1099.05C1080.09 1098.71 1080.3 1098.41 1080.55 1098.17C1080.81 1097.91 1081.13 1097.71 1081.49 1097.58C1081.86 1097.43 1082.26 1097.35 1082.7 1097.35C1083.21 1097.35 1083.66 1097.45 1084.04 1097.64C1084.44 1097.82 1084.76 1098.07 1085 1098.39C1085.26 1098.71 1085.45 1099.07 1085.57 1099.5C1085.71 1099.9 1085.78 1100.34 1085.78 1100.8C1085.78 1101.45 1085.67 1102.14 1085.47 1102.86C1085.28 1103.58 1084.99 1104.3 1084.61 1105.02C1084.23 1105.74 1083.76 1106.44 1083.18 1107.12C1082.63 1107.8 1081.99 1108.43 1081.27 1109L1080.39 1108.2Z" fill="#2A2A2A"/>
<path d="M1125.64 1098.68V1103.21H1108.37V1073.72H1113.85V1098.68H1125.64Z" fill="#2A2A2A"/>
<path d="M1152.61 1078.08V1086.26H1162.93V1090.48H1152.61V1098.82H1165.7V1103.21H1147.1V1073.72H1165.7V1078.08H1152.61Z" fill="#2A2A2A"/>
<path d="M1203.69 1092.07L1200.1 1082.26C1199.92 1081.83 1199.74 1081.31 1199.55 1080.71C1199.35 1080.11 1199.16 1079.47 1198.97 1078.77C1198.8 1079.47 1198.61 1080.12 1198.42 1080.73C1198.23 1081.33 1198.05 1081.85 1197.87 1082.3L1194.3 1092.07H1203.69ZM1213.37 1103.21H1209.13C1208.66 1103.21 1208.27 1103.09 1207.97 1102.86C1207.67 1102.62 1207.45 1102.32 1207.3 1101.96L1205.09 1095.95H1192.88L1190.67 1101.96C1190.56 1102.28 1190.35 1102.56 1190.04 1102.82C1189.73 1103.08 1189.34 1103.21 1188.88 1103.21H1184.6L1196.2 1073.72H1201.79L1213.37 1103.21Z" fill="#2A2A2A"/>
<path d="M1260.15 1088.46C1260.15 1090.62 1259.79 1092.61 1259.07 1094.42C1258.35 1096.23 1257.34 1097.78 1256.03 1099.09C1254.73 1100.39 1253.16 1101.41 1251.32 1102.13C1249.49 1102.85 1247.45 1103.21 1245.2 1103.21H1233.97V1073.72H1245.2C1247.45 1073.72 1249.49 1074.08 1251.32 1074.82C1253.16 1075.54 1254.73 1076.55 1256.03 1077.86C1257.34 1079.15 1258.35 1080.7 1259.07 1082.51C1259.79 1084.31 1260.15 1086.3 1260.15 1088.46ZM1254.52 1088.46C1254.52 1086.84 1254.31 1085.4 1253.87 1084.12C1253.45 1082.83 1252.83 1081.74 1252.02 1080.85C1251.21 1079.96 1250.23 1079.27 1249.08 1078.79C1247.94 1078.32 1246.65 1078.08 1245.2 1078.08H1239.47V1098.84H1245.2C1246.65 1098.84 1247.94 1098.61 1249.08 1098.13C1250.23 1097.65 1251.21 1096.97 1252.02 1096.09C1252.83 1095.19 1253.45 1094.1 1253.87 1092.83C1254.31 1091.53 1254.52 1090.08 1254.52 1088.46Z" fill="#2A2A2A"/>
<path d="M1298.24 1079.08C1298.08 1079.37 1297.9 1079.58 1297.71 1079.71C1297.53 1079.83 1297.31 1079.9 1297.04 1079.9C1296.75 1079.9 1296.44 1079.79 1296.1 1079.59C1295.77 1079.37 1295.38 1079.13 1294.92 1078.88C1294.46 1078.62 1293.91 1078.39 1293.29 1078.18C1292.67 1077.96 1291.95 1077.86 1291.1 1077.86C1290.34 1077.86 1289.68 1077.95 1289.1 1078.14C1288.53 1078.32 1288.05 1078.57 1287.66 1078.9C1287.28 1079.22 1286.99 1079.62 1286.8 1080.08C1286.61 1080.53 1286.51 1081.02 1286.51 1081.57C1286.51 1082.26 1286.71 1082.84 1287.09 1083.3C1287.48 1083.76 1288 1084.16 1288.64 1084.48C1289.27 1084.81 1290 1085.1 1290.82 1085.36C1291.63 1085.62 1292.47 1085.9 1293.33 1086.2C1294.18 1086.48 1295.02 1086.82 1295.84 1087.22C1296.65 1087.6 1297.38 1088.09 1298.02 1088.69C1298.66 1089.27 1299.17 1089.99 1299.55 1090.85C1299.94 1091.7 1300.14 1092.74 1300.14 1093.97C1300.14 1095.3 1299.91 1096.55 1299.45 1097.72C1299 1098.88 1298.33 1099.89 1297.45 1100.76C1296.58 1101.62 1295.51 1102.3 1294.24 1102.8C1292.98 1103.29 1291.53 1103.53 1289.9 1103.53C1288.96 1103.53 1288.04 1103.44 1287.13 1103.25C1286.22 1103.07 1285.34 1102.81 1284.5 1102.47C1283.67 1102.13 1282.88 1101.73 1282.15 1101.25C1281.42 1100.77 1280.76 1100.24 1280.19 1099.66L1281.8 1097.03C1281.94 1096.84 1282.12 1096.68 1282.33 1096.56C1282.55 1096.42 1282.78 1096.35 1283.03 1096.35C1283.37 1096.35 1283.73 1096.5 1284.13 1096.78C1284.52 1097.06 1284.99 1097.36 1285.54 1097.7C1286.08 1098.04 1286.71 1098.35 1287.43 1098.64C1288.17 1098.91 1289.04 1099.05 1290.06 1099.05C1291.63 1099.05 1292.84 1098.68 1293.69 1097.95C1294.55 1097.2 1294.98 1096.13 1294.98 1094.74C1294.98 1093.97 1294.78 1093.34 1294.39 1092.85C1294.01 1092.36 1293.5 1091.95 1292.86 1091.62C1292.22 1091.28 1291.49 1091 1290.68 1090.77C1289.86 1090.54 1289.03 1090.28 1288.19 1090.01C1287.34 1089.74 1286.51 1089.41 1285.7 1089.03C1284.88 1088.65 1284.16 1088.16 1283.52 1087.54C1282.88 1086.93 1282.36 1086.17 1281.97 1085.26C1281.59 1084.34 1281.4 1083.2 1281.4 1081.85C1281.4 1080.78 1281.61 1079.73 1282.03 1078.71C1282.46 1077.69 1283.09 1076.79 1283.9 1076C1284.72 1075.21 1285.73 1074.58 1286.92 1074.1C1288.12 1073.63 1289.49 1073.39 1291.04 1073.39C1292.78 1073.39 1294.39 1073.66 1295.86 1074.21C1297.32 1074.75 1298.58 1075.51 1299.61 1076.49L1298.24 1079.08Z" fill="#2A2A2A"/>
<path d="M416.465 939.854C438.536 930.92 452.199 912.528 452.199 885.202C452.199 865.495 444.579 849.468 432.493 839.483C419.881 829.499 403.327 824.506 384.672 824.506H309V1016.05H348.675V947.211H377.315L413.837 1016.05H456.928L416.465 939.854ZM381.256 862.08C396.496 862.08 411.998 867.597 411.998 885.99C411.998 894.135 409.108 900.441 403.065 904.382C397.021 908.586 389.927 910.688 381.519 910.688H348.413V862.08H381.256Z" fill="#2A2A2A"/>
<path d="M467.015 951.152C467.015 963.764 470.431 975.325 476.737 985.835C483.043 996.345 491.451 1004.23 502.224 1010.27C513.26 1016.05 525.083 1018.94 538.221 1018.94C551.096 1018.94 563.182 1016.05 574.218 1010.01C584.99 1004.23 593.661 996.082 600.23 985.309C606.536 974.799 609.689 963.238 609.689 950.364C609.689 937.489 606.536 925.928 600.23 915.681C593.924 905.171 585.253 897.025 574.48 891.245C563.708 885.202 551.621 882.311 538.746 882.311C525.609 882.311 513.785 885.464 502.75 891.245C491.714 897.288 483.043 905.696 476.737 916.206C470.431 926.716 467.015 938.277 467.015 951.152ZM515.362 926.716C521.668 920.41 529.287 917.257 538.221 917.257C547.417 917.257 555.037 920.41 561.343 926.716C567.649 933.022 570.539 940.905 570.539 950.626C570.539 960.348 567.649 968.493 561.343 974.537C555.037 980.843 547.417 983.996 538.484 983.996C529.287 983.996 521.668 980.843 515.362 974.537C509.318 968.231 506.165 960.348 506.165 950.626C506.165 940.905 509.318 933.022 515.362 926.716Z" fill="#2A2A2A"/>
<path d="M683.583 1018.94C700.399 1018.94 714.325 1013.42 722.733 1005.28C730.878 997.133 735.345 986.623 735.345 975.588C735.345 955.881 721.419 940.905 695.67 935.912L677.54 931.971C670.708 930.657 667.293 927.504 667.293 922.512C667.293 916.469 673.073 911.477 681.744 911.477C692.254 911.477 698.823 917.52 700.662 926.979L733.768 919.885C732.98 913.579 730.353 907.01 724.572 900.178C716.69 890.457 702.238 882.311 681.481 882.311C667.293 882.311 655.469 886.515 645.747 894.923C636.288 903.069 631.559 913.316 631.559 925.14C631.559 944.058 644.171 957.721 669.132 963.238L685.685 966.917C694.093 968.756 698.297 972.697 698.297 978.215C698.297 983.733 693.042 989.513 683.058 989.513C677.014 989.513 672.285 987.674 668.344 983.996C664.665 980.58 662.563 976.376 662.038 971.646L628.406 978.741C628.931 985.047 631.296 991.878 637.339 998.972C640.229 1002.91 643.645 1006.07 647.849 1008.96C655.732 1014.74 668.869 1018.94 683.583 1018.94Z" fill="#2A2A2A"/>
<path d="M799.567 1018.68C816.646 1018.68 829.52 1012.11 838.454 999.761H838.979C838.979 1007.38 839.242 1012.64 839.768 1016.05H875.239C874.713 1010.01 874.188 1002.91 874.188 995.031V935.124C874.188 900.441 850.278 882.049 817.959 882.311C808.5 882.311 799.83 883.888 791.684 886.778C783.276 889.668 776.182 894.398 770.402 900.704C764.358 907.01 760.68 914.63 759.103 923.563L792.735 931.183C795.626 920.147 804.559 913.316 816.12 913.316C829.258 913.316 836.615 920.41 836.615 929.606C836.615 935.124 833.199 938.54 826.367 938.54H813.755C802.72 938.54 792.998 939.854 782.488 943.795C767.511 949.05 756.213 959.823 756.213 978.478V979.529C756.213 991.09 760.417 1000.55 769.088 1007.91C777.496 1015 787.743 1018.68 799.567 1018.68ZM810.602 990.827C801.669 990.827 794.575 986.098 794.575 977.427C794.575 972.697 796.677 969.019 800.881 966.391C804.822 963.764 809.026 962.45 813.755 962.45H836.615V965.603C836.615 972.435 834.25 978.478 829.52 983.207C824.791 988.2 818.485 990.827 810.602 990.827Z" fill="#2A2A2A"/>
<path d="M976.562 1016.05L1030.16 885.464H989.699L957.381 972.697L925.326 885.464H884.862L937.938 1016.05H976.562Z" fill="#2A2A2A"/>
<path d="M1075.15 1018.68C1092.23 1018.68 1105.1 1012.11 1114.03 999.761H1114.56C1114.56 1007.38 1114.82 1012.64 1115.35 1016.05H1150.82C1150.29 1010.01 1149.77 1002.91 1149.77 995.031V935.124C1149.77 900.441 1125.86 882.049 1093.54 882.311C1084.08 882.311 1075.41 883.888 1067.26 886.778C1058.86 889.668 1051.76 894.398 1045.98 900.704C1039.94 907.01 1036.26 914.63 1034.68 923.563L1068.32 931.183C1071.21 920.147 1080.14 913.316 1091.7 913.316C1104.84 913.316 1112.19 920.41 1112.19 929.606C1112.19 935.124 1108.78 938.54 1101.95 938.54H1089.34C1078.3 938.54 1068.58 939.854 1058.07 943.795C1043.09 949.05 1031.79 959.823 1031.79 978.478V979.529C1031.79 991.09 1036 1000.55 1044.67 1007.91C1053.08 1015 1063.32 1018.68 1075.15 1018.68ZM1086.18 990.827C1077.25 990.827 1070.15 986.098 1070.15 977.427C1070.15 972.697 1072.26 969.019 1076.46 966.391C1080.4 963.764 1084.61 962.45 1089.34 962.45H1112.19V965.603C1112.19 972.435 1109.83 978.478 1105.1 983.207C1100.37 988.2 1094.06 990.827 1086.18 990.827Z" fill="#2A2A2A"/>
<path d="M1306.05 1016.05V934.861C1306.05 908.061 1291.86 882.837 1258.76 882.837C1255.08 882.837 1250.09 883.625 1242.2 885.99C1234.58 888.355 1226.44 894.398 1221.71 902.543H1221.45V885.464H1183.61V1016.05H1221.71V943.532C1221.71 936.438 1223.81 930.395 1227.75 925.402C1231.69 920.673 1237.47 918.308 1245.09 918.308C1260.33 918.308 1267.95 928.293 1267.95 943.532V1016.05H1306.05Z" fill="#2A2A2A"/>
<path d="M824.101 607.359H723.338L857.044 758.118C841.541 761.993 825.264 763.931 808.599 763.931C696.209 763.931 605.134 672.856 605.134 560.465C605.134 532.562 610.56 506.208 620.636 482.18H824.101C858.594 482.18 886.885 510.084 886.885 544.963C886.885 579.843 858.594 607.359 824.101 607.359Z" fill="url(#paint0_linear_201_272)"/>
<path d="M1012.06 560.465C1012.06 632.55 974.472 696.109 917.889 732.152L858.594 665.105C910.913 650.378 949.669 601.934 949.669 544.576C949.669 475.591 893.474 419.396 824.489 419.396H661.717C698.922 381.028 750.854 357 808.599 357C920.99 357 1012.06 448.075 1012.06 560.465Z" fill="url(#paint1_linear_201_272)"/>
<defs>
<linearGradient id="paint0_linear_201_272" x1="559.724" y1="271.926" x2="962.536" y2="1196.97" gradientUnits="userSpaceOnUse">
<stop offset="0.484375" stop-color="#FA9E1F"/>
<stop offset="0.895833" stop-color="#FF9400"/>
</linearGradient>
<linearGradient id="paint1_linear_201_272" x1="770.398" y1="347.534" x2="973.777" y2="699.798" gradientUnits="userSpaceOnUse">
<stop stop-color="#2A2A2A"/>
</linearGradient>
</defs>
</svg>
