<svg width="1615" height="1515" viewBox="0 0 1615 1515" fill="none" xmlns="http://www.w3.org/2000/svg">
<rect width="1615" height="1515" fill="#2A2A2A"/>
<rect width="1615" height="1515" fill="#2A2A2A"/>
<path d="M234.034 1110.82V1120.39H246.113V1125.33H234.034V1135.09H249.359V1140.22H227.588V1105.71H249.359V1110.82H234.034Z" fill="white"/>
<path d="M305.157 1105.71L291.216 1140.22H285.415L271.474 1105.71H276.63C277.187 1105.71 277.641 1105.85 277.991 1106.12C278.341 1106.39 278.604 1106.74 278.779 1107.17L286.919 1128.22C287.19 1128.9 287.444 1129.66 287.683 1130.48C287.938 1131.3 288.176 1132.15 288.399 1133.04C288.59 1132.15 288.797 1131.3 289.02 1130.48C289.243 1129.66 289.489 1128.9 289.76 1128.22L297.852 1107.17C297.98 1106.8 298.226 1106.47 298.593 1106.16C298.974 1105.86 299.436 1105.71 299.977 1105.71H305.157Z" fill="white"/>
<path d="M335.705 1110.82V1120.39H347.785V1125.33H335.705V1135.09H351.031V1140.22H329.26V1105.71H351.031V1110.82H335.705Z" fill="white"/>
<path d="M406.352 1105.71V1140.22H403.057C402.548 1140.22 402.118 1140.14 401.768 1139.98C401.434 1139.81 401.108 1139.52 400.789 1139.12L382.766 1116.12C382.862 1117.17 382.909 1118.14 382.909 1119.03V1140.22H377.252V1105.71H380.618C380.888 1105.71 381.119 1105.73 381.31 1105.76C381.517 1105.77 381.692 1105.82 381.835 1105.9C381.994 1105.96 382.146 1106.07 382.289 1106.21C382.432 1106.34 382.591 1106.51 382.766 1106.74L400.861 1129.84C400.813 1129.28 400.774 1128.73 400.742 1128.19C400.71 1127.65 400.694 1127.15 400.694 1126.69V1105.71H406.352Z" fill="white"/>
<path d="M458.679 1110.98H448.271V1140.22H441.849V1110.98H431.441V1105.71H458.679V1110.98Z" fill="white"/>
<path d="M502.014 1111.99C501.823 1112.32 501.616 1112.57 501.393 1112.73C501.186 1112.87 500.924 1112.94 500.606 1112.94C500.271 1112.94 499.905 1112.82 499.507 1112.58C499.125 1112.33 498.664 1112.05 498.123 1111.75C497.582 1111.45 496.945 1111.18 496.213 1110.94C495.497 1110.68 494.645 1110.55 493.659 1110.55C492.768 1110.55 491.988 1110.67 491.319 1110.89C490.651 1111.1 490.086 1111.39 489.624 1111.77C489.179 1112.15 488.845 1112.62 488.622 1113.16C488.399 1113.68 488.288 1114.26 488.288 1114.9C488.288 1115.71 488.51 1116.39 488.956 1116.93C489.418 1117.47 490.022 1117.93 490.77 1118.31C491.518 1118.69 492.37 1119.04 493.325 1119.34C494.279 1119.64 495.258 1119.97 496.261 1120.32C497.263 1120.65 498.242 1121.05 499.197 1121.51C500.152 1121.96 501.003 1122.53 501.751 1123.23C502.499 1123.91 503.096 1124.76 503.542 1125.76C504.003 1126.76 504.234 1127.98 504.234 1129.41C504.234 1130.97 503.963 1132.43 503.422 1133.8C502.897 1135.15 502.117 1136.34 501.083 1137.36C500.064 1138.36 498.815 1139.16 497.335 1139.74C495.855 1140.32 494.16 1140.6 492.25 1140.6C491.152 1140.6 490.07 1140.49 489.004 1140.27C487.938 1140.06 486.911 1139.76 485.924 1139.36C484.954 1138.96 484.038 1138.49 483.179 1137.93C482.32 1137.37 481.556 1136.75 480.887 1136.07L482.773 1132.99C482.932 1132.77 483.139 1132.58 483.394 1132.44C483.649 1132.28 483.919 1132.2 484.206 1132.2C484.603 1132.2 485.033 1132.37 485.495 1132.7C485.956 1133.02 486.505 1133.38 487.142 1133.78C487.778 1134.18 488.518 1134.54 489.362 1134.88C490.221 1135.19 491.248 1135.35 492.441 1135.35C494.272 1135.35 495.688 1134.92 496.691 1134.06C497.693 1133.19 498.194 1131.94 498.194 1130.32C498.194 1129.41 497.964 1128.67 497.502 1128.1C497.057 1127.52 496.46 1127.05 495.712 1126.67C494.964 1126.27 494.112 1125.93 493.157 1125.66C492.203 1125.39 491.232 1125.1 490.245 1124.78C489.258 1124.46 488.288 1124.08 487.333 1123.63C486.378 1123.19 485.526 1122.61 484.778 1121.89C484.03 1121.18 483.426 1120.28 482.964 1119.22C482.519 1118.14 482.296 1116.81 482.296 1115.23C482.296 1113.98 482.542 1112.75 483.036 1111.56C483.545 1110.36 484.277 1109.31 485.232 1108.38C486.187 1107.46 487.365 1106.72 488.765 1106.16C490.166 1105.61 491.773 1105.33 493.587 1105.33C495.624 1105.33 497.502 1105.65 499.221 1106.28C500.94 1106.92 502.404 1107.81 503.613 1108.96L502.014 1111.99Z" fill="white"/>
<path d="M529.339 1146.07C529.053 1145.83 528.909 1145.54 528.909 1145.19C528.909 1145.06 528.949 1144.92 529.029 1144.76C529.124 1144.6 529.236 1144.45 529.363 1144.33C529.538 1144.14 529.753 1143.9 530.007 1143.61C530.262 1143.34 530.517 1143.02 530.771 1142.66C531.026 1142.31 531.257 1141.92 531.464 1141.49C531.686 1141.07 531.854 1140.63 531.965 1140.15C531.456 1140.15 530.994 1140.06 530.58 1139.89C530.167 1139.7 529.809 1139.44 529.506 1139.12C529.22 1138.81 528.989 1138.43 528.814 1138C528.655 1137.57 528.575 1137.1 528.575 1136.59C528.575 1136.15 528.655 1135.73 528.814 1135.35C528.989 1134.96 529.228 1134.61 529.53 1134.33C529.832 1134.02 530.198 1133.79 530.628 1133.63C531.058 1133.46 531.527 1133.37 532.037 1133.37C532.641 1133.37 533.166 1133.48 533.612 1133.71C534.074 1133.91 534.448 1134.21 534.734 1134.59C535.036 1134.96 535.259 1135.38 535.402 1135.88C535.562 1136.36 535.641 1136.86 535.641 1137.41C535.641 1138.17 535.522 1138.97 535.283 1139.82C535.06 1140.66 534.726 1141.5 534.28 1142.35C533.835 1143.19 533.278 1144.01 532.609 1144.8C531.957 1145.6 531.209 1146.33 530.366 1147L529.339 1146.07Z" fill="white"/>
<path d="M568.531 1140.22H562.085V1105.71H568.531V1140.22Z" fill="white"/>
<path d="M625.889 1105.71V1140.22H622.594C622.085 1140.22 621.656 1140.14 621.305 1139.98C620.971 1139.81 620.645 1139.52 620.327 1139.12L602.303 1116.12C602.399 1117.17 602.447 1118.14 602.447 1119.03V1140.22H596.789V1105.71H600.155C600.425 1105.71 600.656 1105.73 600.847 1105.76C601.054 1105.77 601.229 1105.82 601.372 1105.9C601.532 1105.96 601.683 1106.07 601.826 1106.21C601.969 1106.34 602.128 1106.51 602.303 1106.74L620.398 1129.84C620.35 1129.28 620.311 1128.73 620.279 1128.19C620.247 1127.65 620.231 1127.15 620.231 1126.69V1105.71H625.889Z" fill="white"/>
<path d="M660.551 1110.82V1121.03H673.49V1126.16H660.551V1140.22H654.106V1105.71H675.877V1110.82H660.551Z" fill="white"/>
<path d="M734.271 1122.97C734.271 1125.5 733.849 1127.84 733.006 1130.01C732.178 1132.15 731 1134.02 729.472 1135.59C727.945 1137.17 726.107 1138.4 723.958 1139.29C721.81 1140.17 719.422 1140.6 716.797 1140.6C714.187 1140.6 711.807 1140.17 709.659 1139.29C707.51 1138.4 705.664 1137.17 704.121 1135.59C702.593 1134.02 701.407 1132.15 700.564 1130.01C699.72 1127.84 699.298 1125.5 699.298 1122.97C699.298 1120.44 699.72 1118.1 700.564 1115.95C701.407 1113.79 702.593 1111.92 704.121 1110.34C705.664 1108.77 707.51 1107.54 709.659 1106.66C711.807 1105.77 714.187 1105.33 716.797 1105.33C718.547 1105.33 720.194 1105.54 721.738 1105.95C723.282 1106.35 724.698 1106.92 725.987 1107.67C727.276 1108.4 728.43 1109.3 729.449 1110.36C730.483 1111.41 731.358 1112.59 732.075 1113.9C732.791 1115.2 733.332 1116.62 733.698 1118.14C734.08 1119.67 734.271 1121.28 734.271 1122.97ZM727.706 1122.97C727.706 1121.07 727.451 1119.38 726.942 1117.88C726.433 1116.37 725.709 1115.09 724.77 1114.04C723.831 1112.99 722.685 1112.19 721.332 1111.63C719.995 1111.07 718.484 1110.79 716.797 1110.79C715.11 1110.79 713.59 1111.07 712.237 1111.63C710.9 1112.19 709.754 1112.99 708.799 1114.04C707.86 1115.09 707.136 1116.37 706.627 1117.88C706.118 1119.38 705.863 1121.07 705.863 1122.97C705.863 1124.86 706.118 1126.56 706.627 1128.07C707.136 1129.57 707.86 1130.84 708.799 1131.89C709.754 1132.93 710.9 1133.72 712.237 1134.28C713.59 1134.84 715.11 1135.11 716.797 1135.11C718.484 1135.11 719.995 1134.84 721.332 1134.28C722.685 1133.72 723.831 1132.93 724.77 1131.89C725.709 1130.84 726.433 1129.57 726.942 1128.07C727.451 1126.56 727.706 1124.86 727.706 1122.97Z" fill="white"/>
<path d="M770.872 1122.13C772.081 1122.13 773.132 1121.98 774.023 1121.68C774.93 1121.37 775.67 1120.96 776.243 1120.44C776.832 1119.89 777.27 1119.26 777.556 1118.53C777.843 1117.79 777.986 1116.99 777.986 1116.12C777.986 1114.37 777.405 1113.02 776.243 1112.08C775.097 1111.14 773.339 1110.67 770.967 1110.67H766.861V1122.13H770.872ZM787.391 1140.22H781.59C780.492 1140.22 779.697 1139.79 779.203 1138.93L771.946 1127.88C771.676 1127.47 771.373 1127.17 771.039 1127C770.721 1126.82 770.243 1126.74 769.607 1126.74H766.861V1140.22H760.44V1105.71H770.967C773.307 1105.71 775.312 1105.96 776.983 1106.45C778.67 1106.93 780.047 1107.6 781.113 1108.48C782.195 1109.35 782.991 1110.4 783.5 1111.63C784.009 1112.84 784.264 1114.17 784.264 1115.64C784.264 1116.8 784.089 1117.9 783.739 1118.93C783.405 1119.97 782.911 1120.91 782.259 1121.75C781.622 1122.59 780.827 1123.33 779.872 1123.97C778.933 1124.6 777.858 1125.11 776.649 1125.47C777.063 1125.71 777.445 1126 777.795 1126.33C778.145 1126.65 778.463 1127.03 778.75 1127.48L787.391 1140.22Z" fill="white"/>
<path d="M849.08 1105.71V1140.22H843.422V1117.93C843.422 1117.04 843.47 1116.08 843.565 1115.04L833.133 1134.64C832.64 1135.58 831.884 1136.05 830.866 1136.05H829.959C828.94 1136.05 828.184 1135.58 827.691 1134.64L817.139 1114.97C817.187 1115.5 817.227 1116.01 817.259 1116.52C817.29 1117.03 817.306 1117.5 817.306 1117.93V1140.22H811.649V1105.71H816.495C816.781 1105.71 817.028 1105.72 817.235 1105.73C817.442 1105.75 817.625 1105.79 817.784 1105.85C817.959 1105.92 818.11 1106.02 818.237 1106.16C818.381 1106.31 818.516 1106.5 818.643 1106.74L828.98 1125.9C829.25 1126.41 829.497 1126.94 829.72 1127.48C829.959 1128.02 830.189 1128.57 830.412 1129.15C830.635 1128.56 830.866 1127.99 831.104 1127.45C831.343 1126.9 831.598 1126.36 831.868 1125.85L842.062 1106.74C842.189 1106.5 842.324 1106.31 842.467 1106.16C842.611 1106.02 842.762 1105.92 842.921 1105.85C843.096 1105.79 843.287 1105.75 843.494 1105.73C843.701 1105.72 843.947 1105.71 844.234 1105.71H849.08Z" fill="white"/>
<path d="M895.549 1127.19L891.348 1115.71C891.141 1115.2 890.926 1114.6 890.703 1113.9C890.481 1113.2 890.258 1112.44 890.035 1111.63C889.828 1112.44 889.613 1113.2 889.39 1113.92C889.168 1114.62 888.953 1115.23 888.746 1115.76L884.568 1127.19H895.549ZM906.889 1140.22H901.923C901.366 1140.22 900.913 1140.09 900.562 1139.82C900.212 1139.53 899.95 1139.18 899.775 1138.77L897.197 1131.73H882.897L880.319 1138.77C880.192 1139.13 879.945 1139.47 879.579 1139.77C879.213 1140.07 878.76 1140.22 878.218 1140.22H873.205L886.788 1105.71H893.329L906.889 1140.22Z" fill="white"/>
<path d="M951.745 1110.98H941.337V1140.22H934.915V1110.98H924.507V1105.71H951.745V1110.98Z" fill="white"/>
<path d="M983.237 1140.22H976.792V1105.71H983.237V1140.22Z" fill="white"/>
<path d="M1044.41 1122.97C1044.41 1125.5 1043.99 1127.84 1043.15 1130.01C1042.32 1132.15 1041.14 1134.02 1039.62 1135.59C1038.09 1137.17 1036.25 1138.4 1034.1 1139.29C1031.95 1140.17 1029.57 1140.6 1026.94 1140.6C1024.33 1140.6 1021.95 1140.17 1019.8 1139.29C1017.65 1138.4 1015.81 1137.17 1014.26 1135.59C1012.74 1134.02 1011.55 1132.15 1010.71 1130.01C1009.86 1127.84 1009.44 1125.5 1009.44 1122.97C1009.44 1120.44 1009.86 1118.1 1010.71 1115.95C1011.55 1113.79 1012.74 1111.92 1014.26 1110.34C1015.81 1108.77 1017.65 1107.54 1019.8 1106.66C1021.95 1105.77 1024.33 1105.33 1026.94 1105.33C1028.69 1105.33 1030.34 1105.54 1031.88 1105.95C1033.43 1106.35 1034.84 1106.92 1036.13 1107.67C1037.42 1108.4 1038.57 1109.3 1039.59 1110.36C1040.63 1111.41 1041.5 1112.59 1042.22 1113.9C1042.93 1115.2 1043.48 1116.62 1043.84 1118.14C1044.22 1119.67 1044.41 1121.28 1044.41 1122.97ZM1037.85 1122.97C1037.85 1121.07 1037.6 1119.38 1037.09 1117.88C1036.58 1116.37 1035.85 1115.09 1034.91 1114.04C1033.97 1112.99 1032.83 1112.19 1031.48 1111.63C1030.14 1111.07 1028.63 1110.79 1026.94 1110.79C1025.25 1110.79 1023.73 1111.07 1022.38 1111.63C1021.04 1112.19 1019.9 1112.99 1018.94 1114.04C1018 1115.09 1017.28 1116.37 1016.77 1117.88C1016.26 1119.38 1016.01 1121.07 1016.01 1122.97C1016.01 1124.86 1016.26 1126.56 1016.77 1128.07C1017.28 1129.57 1018 1130.84 1018.94 1131.89C1019.9 1132.93 1021.04 1133.72 1022.38 1134.28C1023.73 1134.84 1025.25 1135.11 1026.94 1135.11C1028.63 1135.11 1030.14 1134.84 1031.48 1134.28C1032.83 1133.72 1033.97 1132.93 1034.91 1131.89C1035.85 1130.84 1036.58 1129.57 1037.09 1128.07C1037.6 1126.56 1037.85 1124.86 1037.85 1122.97Z" fill="white"/>
<path d="M1099.68 1105.71V1140.22H1096.39C1095.88 1140.22 1095.45 1140.14 1095.1 1139.98C1094.77 1139.81 1094.44 1139.52 1094.12 1139.12L1076.1 1116.12C1076.19 1117.17 1076.24 1118.14 1076.24 1119.03V1140.22H1070.58V1105.71H1073.95C1074.22 1105.71 1074.45 1105.73 1074.64 1105.76C1074.85 1105.77 1075.02 1105.82 1075.17 1105.9C1075.33 1105.96 1075.48 1106.07 1075.62 1106.21C1075.76 1106.34 1075.92 1106.51 1076.1 1106.74L1094.19 1129.84C1094.15 1129.28 1094.11 1128.73 1094.07 1128.19C1094.04 1127.65 1094.03 1127.15 1094.03 1126.69V1105.71H1099.68Z" fill="white"/>
<path d="M1126.87 1146.07C1126.59 1145.83 1126.44 1145.54 1126.44 1145.19C1126.44 1145.06 1126.48 1144.92 1126.56 1144.76C1126.66 1144.6 1126.77 1144.45 1126.9 1144.33C1127.07 1144.14 1127.29 1143.9 1127.54 1143.61C1127.8 1143.34 1128.05 1143.02 1128.31 1142.66C1128.56 1142.31 1128.79 1141.92 1129 1141.49C1129.22 1141.07 1129.39 1140.63 1129.5 1140.15C1128.99 1140.15 1128.53 1140.06 1128.12 1139.89C1127.7 1139.7 1127.34 1139.44 1127.04 1139.12C1126.75 1138.81 1126.52 1138.43 1126.35 1138C1126.19 1137.57 1126.11 1137.1 1126.11 1136.59C1126.11 1136.15 1126.19 1135.73 1126.35 1135.35C1126.52 1134.96 1126.76 1134.61 1127.07 1134.33C1127.37 1134.02 1127.73 1133.79 1128.16 1133.63C1128.59 1133.46 1129.06 1133.37 1129.57 1133.37C1130.18 1133.37 1130.7 1133.48 1131.15 1133.71C1131.61 1133.91 1131.98 1134.21 1132.27 1134.59C1132.57 1134.96 1132.79 1135.38 1132.94 1135.88C1133.1 1136.36 1133.18 1136.86 1133.18 1137.41C1133.18 1138.17 1133.06 1138.97 1132.82 1139.82C1132.6 1140.66 1132.26 1141.5 1131.82 1142.35C1131.37 1143.19 1130.81 1144.01 1130.14 1144.8C1129.49 1145.6 1128.74 1146.33 1127.9 1147L1126.87 1146.07Z" fill="white"/>
<path d="M1179.84 1134.92V1140.22H1159.62V1105.71H1166.04V1134.92H1179.84Z" fill="white"/>
<path d="M1211.4 1110.82V1120.39H1223.48V1125.33H1211.4V1135.09H1226.73V1140.22H1204.95V1105.71H1226.73V1110.82H1211.4Z" fill="white"/>
<path d="M1271.18 1127.19L1266.98 1115.71C1266.78 1115.2 1266.56 1114.6 1266.34 1113.9C1266.12 1113.2 1265.89 1112.44 1265.67 1111.63C1265.46 1112.44 1265.25 1113.2 1265.03 1113.92C1264.8 1114.62 1264.59 1115.23 1264.38 1115.76L1260.2 1127.19H1271.18ZM1282.52 1140.22H1277.56C1277 1140.22 1276.55 1140.09 1276.2 1139.82C1275.85 1139.53 1275.58 1139.18 1275.41 1138.77L1272.83 1131.73H1258.53L1255.95 1138.77C1255.83 1139.13 1255.58 1139.47 1255.21 1139.77C1254.85 1140.07 1254.39 1140.22 1253.85 1140.22H1248.84L1262.42 1105.71H1268.96L1282.52 1140.22Z" fill="white"/>
<path d="M1337.28 1122.97C1337.28 1125.5 1336.86 1127.82 1336.01 1129.94C1335.17 1132.05 1333.98 1133.87 1332.46 1135.4C1330.93 1136.93 1329.09 1138.11 1326.94 1138.96C1324.79 1139.8 1322.41 1140.22 1319.78 1140.22H1306.63V1105.71H1319.78C1322.41 1105.71 1324.79 1106.14 1326.94 1107C1329.09 1107.84 1330.93 1109.03 1332.46 1110.55C1333.98 1112.07 1335.17 1113.88 1336.01 1116C1336.86 1118.11 1337.28 1120.44 1337.28 1122.97ZM1330.69 1122.97C1330.69 1121.07 1330.43 1119.38 1329.93 1117.88C1329.43 1116.37 1328.71 1115.1 1327.75 1114.06C1326.81 1113.01 1325.67 1112.21 1324.32 1111.65C1322.98 1111.1 1321.47 1110.82 1319.78 1110.82H1313.07V1135.11H1319.78C1321.47 1135.11 1322.98 1134.84 1324.32 1134.28C1325.67 1133.72 1326.81 1132.93 1327.75 1131.89C1328.71 1130.84 1329.43 1129.57 1329.93 1128.07C1330.43 1126.56 1330.69 1124.86 1330.69 1122.97Z" fill="white"/>
<path d="M1381.86 1111.99C1381.67 1112.32 1381.46 1112.57 1381.24 1112.73C1381.03 1112.87 1380.77 1112.94 1380.45 1112.94C1380.12 1112.94 1379.75 1112.82 1379.35 1112.58C1378.97 1112.33 1378.51 1112.05 1377.97 1111.75C1377.43 1111.45 1376.79 1111.18 1376.06 1110.94C1375.34 1110.68 1374.49 1110.55 1373.5 1110.55C1372.61 1110.55 1371.83 1110.67 1371.16 1110.89C1370.5 1111.1 1369.93 1111.39 1369.47 1111.77C1369.02 1112.15 1368.69 1112.62 1368.47 1113.16C1368.24 1113.68 1368.13 1114.26 1368.13 1114.9C1368.13 1115.71 1368.35 1116.39 1368.8 1116.93C1369.26 1117.47 1369.87 1117.93 1370.61 1118.31C1371.36 1118.69 1372.21 1119.04 1373.17 1119.34C1374.12 1119.64 1375.1 1119.97 1376.1 1120.32C1377.11 1120.65 1378.09 1121.05 1379.04 1121.51C1380 1121.96 1380.85 1122.53 1381.6 1123.23C1382.34 1123.91 1382.94 1124.76 1383.39 1125.76C1383.85 1126.76 1384.08 1127.98 1384.08 1129.41C1384.08 1130.97 1383.81 1132.43 1383.27 1133.8C1382.74 1135.15 1381.96 1136.34 1380.93 1137.36C1379.91 1138.36 1378.66 1139.16 1377.18 1139.74C1375.7 1140.32 1374 1140.6 1372.09 1140.6C1371 1140.6 1369.91 1140.49 1368.85 1140.27C1367.78 1140.06 1366.76 1139.76 1365.77 1139.36C1364.8 1138.96 1363.88 1138.49 1363.02 1137.93C1362.16 1137.37 1361.4 1136.75 1360.73 1136.07L1362.62 1132.99C1362.78 1132.77 1362.98 1132.58 1363.24 1132.44C1363.49 1132.28 1363.76 1132.2 1364.05 1132.2C1364.45 1132.2 1364.88 1132.37 1365.34 1132.7C1365.8 1133.02 1366.35 1133.38 1366.99 1133.78C1367.62 1134.18 1368.36 1134.54 1369.21 1134.88C1370.07 1135.19 1371.09 1135.35 1372.29 1135.35C1374.12 1135.35 1375.53 1134.92 1376.53 1134.06C1377.54 1133.19 1378.04 1131.94 1378.04 1130.32C1378.04 1129.41 1377.81 1128.67 1377.35 1128.1C1376.9 1127.52 1376.3 1127.05 1375.56 1126.67C1374.81 1126.27 1373.96 1125.93 1373 1125.66C1372.05 1125.39 1371.08 1125.1 1370.09 1124.78C1369.1 1124.46 1368.13 1124.08 1367.18 1123.63C1366.22 1123.19 1365.37 1122.61 1364.62 1121.89C1363.87 1121.18 1363.27 1120.28 1362.81 1119.22C1362.36 1118.14 1362.14 1116.81 1362.14 1115.23C1362.14 1113.98 1362.39 1112.75 1362.88 1111.56C1363.39 1110.36 1364.12 1109.31 1365.08 1108.38C1366.03 1107.46 1367.21 1106.72 1368.61 1106.16C1370.01 1105.61 1371.62 1105.33 1373.43 1105.33C1375.47 1105.33 1377.35 1105.65 1379.06 1106.28C1380.78 1106.92 1382.25 1107.81 1383.46 1108.96L1381.86 1111.99Z" fill="white"/>
<path d="M349.782 949.063C375.615 938.609 391.607 917.085 391.607 885.108C391.607 862.048 382.688 843.292 368.542 831.608C353.78 819.924 334.405 814.082 312.57 814.082H224V1038.23H270.438V957.672H303.959L346.707 1038.23H397.143L349.782 949.063ZM308.572 858.05C326.409 858.05 344.554 864.507 344.554 886.031C344.554 895.562 341.171 902.942 334.098 907.554C327.025 912.473 318.721 914.933 308.88 914.933H270.13V858.05H308.572Z" fill="#FB9C1A"/>
<path d="M408.949 962.284C408.949 977.043 412.947 990.572 420.328 1002.87C427.709 1015.17 437.55 1024.39 450.159 1031.47C463.075 1038.23 476.915 1041.61 492.291 1041.61C507.361 1041.61 521.507 1038.23 534.424 1031.16C547.033 1024.39 557.181 1014.86 564.87 1002.26C572.251 989.957 575.941 976.428 575.941 961.362C575.941 946.295 572.251 932.767 564.87 920.775C557.489 908.476 547.34 898.944 534.731 892.18C522.122 885.108 507.976 881.726 492.906 881.726C477.53 881.726 463.691 885.416 450.774 892.18C437.858 899.252 427.709 909.091 420.328 921.39C412.947 933.689 408.949 947.218 408.949 962.284ZM465.536 933.689C472.917 926.31 481.835 922.62 492.291 922.62C503.055 922.62 511.974 926.31 519.355 933.689C526.735 941.068 530.118 950.293 530.118 961.669C530.118 973.046 526.735 982.577 519.355 989.649C511.974 997.029 503.055 1000.72 492.599 1000.72C481.835 1000.72 472.917 997.029 465.536 989.649C458.462 982.27 454.772 973.046 454.772 961.669C454.772 950.293 458.462 941.068 465.536 933.689Z" fill="#FB9C1A"/>
<path d="M662.431 1041.61C682.113 1041.61 698.412 1035.16 708.254 1025.62C717.787 1016.09 723.015 1003.79 723.015 990.879C723.015 967.819 706.716 950.293 676.577 944.451L655.357 939.838C647.362 938.301 643.364 934.611 643.364 928.769C643.364 921.698 650.129 915.856 660.278 915.856C672.58 915.856 680.268 922.927 682.421 933.996L721.17 925.695C720.248 918.315 717.172 910.628 710.406 902.634C701.18 891.258 684.266 881.726 659.971 881.726C643.364 881.726 629.524 886.646 618.146 896.485C607.074 906.016 601.539 918.008 601.539 931.844C601.539 953.982 616.3 969.971 645.516 976.428L664.891 980.732C674.732 982.885 679.653 987.497 679.653 993.954C679.653 1000.41 673.502 1007.18 661.816 1007.18C654.742 1007.18 649.207 1005.02 644.594 1000.72C640.288 996.721 637.828 991.801 637.213 986.267L597.848 994.569C598.463 1001.95 601.231 1009.94 608.304 1018.24C611.687 1022.86 615.685 1026.55 620.606 1029.93C629.832 1036.69 645.209 1041.61 662.431 1041.61Z" fill="#FB9C1A"/>
<path d="M798.184 1041.3C818.174 1041.3 833.243 1033.62 843.699 1019.17H844.314C844.314 1028.08 844.622 1034.23 845.237 1038.23H886.754C886.139 1031.16 885.524 1022.86 885.524 1013.63V943.528C885.524 902.942 857.538 881.418 819.711 881.726C808.64 881.726 798.491 883.571 788.958 886.953C779.117 890.335 770.813 895.87 764.047 903.249C756.974 910.628 752.669 919.545 750.823 929.999L790.188 938.916C793.571 926.002 804.027 918.008 817.559 918.008C832.935 918.008 841.546 926.31 841.546 937.071C841.546 943.528 837.548 947.525 829.552 947.525H814.791C801.874 947.525 790.495 949.063 778.194 953.675C760.664 959.824 747.44 972.431 747.44 994.261V995.491C747.44 1009.02 752.361 1020.09 762.51 1028.7C772.351 1037 784.345 1041.3 798.184 1041.3ZM811.1 1008.71C800.644 1008.71 792.341 1003.18 792.341 993.031C792.341 987.497 794.801 983.192 799.722 980.117C804.335 977.043 809.255 975.505 814.791 975.505H841.546V979.195C841.546 987.189 838.779 994.261 833.243 999.796C827.707 1005.64 820.326 1008.71 811.1 1008.71Z" fill="#FB9C1A"/>
<path d="M1005.35 1038.23L1068.09 885.416H1020.72L982.898 987.497L945.378 885.416H898.018L960.14 1038.23H1005.35Z" fill="#FB9C1A"/>
<path d="M1120.74 1041.3C1140.73 1041.3 1155.8 1033.62 1166.25 1019.17H1166.87C1166.87 1028.08 1167.17 1034.23 1167.79 1038.23H1209.31C1208.69 1031.16 1208.08 1022.86 1208.08 1013.63V943.528C1208.08 902.942 1180.09 881.418 1142.26 881.726C1131.19 881.726 1121.04 883.571 1111.51 886.953C1101.67 890.335 1093.37 895.87 1086.6 903.249C1079.53 910.628 1075.22 919.545 1073.38 929.999L1112.74 938.916C1116.12 926.002 1126.58 918.008 1140.11 918.008C1155.49 918.008 1164.1 926.31 1164.1 937.071C1164.1 943.528 1160.1 947.525 1152.1 947.525H1137.34C1124.43 947.525 1113.05 949.063 1100.75 953.675C1083.22 959.824 1069.99 972.431 1069.99 994.261V995.491C1069.99 1009.02 1074.91 1020.09 1085.06 1028.7C1094.9 1037 1106.9 1041.3 1120.74 1041.3ZM1133.65 1008.71C1123.2 1008.71 1114.89 1003.18 1114.89 993.031C1114.89 987.497 1117.35 983.192 1122.27 980.117C1126.89 977.043 1131.81 975.505 1137.34 975.505H1164.1V979.195C1164.1 987.189 1161.33 994.261 1155.8 999.796C1150.26 1005.64 1142.88 1008.71 1133.65 1008.71Z" fill="#FB9C1A"/>
<path d="M1391 1038.23V943.221C1391 911.858 1374.39 882.341 1335.64 882.341C1331.34 882.341 1325.49 883.263 1316.27 886.031C1307.35 888.798 1297.82 895.87 1292.28 905.401H1291.97V885.416H1247.69V1038.23H1292.28V953.367C1292.28 945.065 1294.74 937.994 1299.35 932.152C1303.97 926.617 1310.73 923.85 1319.65 923.85C1337.49 923.85 1346.41 935.534 1346.41 953.367V1038.23H1391Z" fill="#FB9C1A"/>
<path d="M826.9 559.974H708.961L865.457 736.393C847.313 740.928 828.261 743.196 808.756 743.196C677.209 743.196 570.61 636.619 570.61 505.098C570.61 472.444 576.96 441.605 588.754 413.487H826.9C867.272 413.487 900.385 446.14 900.385 486.957C900.385 527.774 867.272 559.974 826.9 559.974Z" fill="url(#paint0_linear_201_280)"/>
<path d="M1046.9 505.098C1046.9 589.453 1002.9 663.83 936.674 706.007L867.272 627.548C928.509 610.314 973.87 553.624 973.87 486.504C973.87 405.777 908.097 340.017 827.354 340.017H636.837C680.384 295.118 741.168 267 808.756 267C940.303 267 1046.9 373.577 1046.9 505.098Z" fill="url(#paint1_linear_201_280)"/>
<defs>
<linearGradient id="paint0_linear_201_280" x1="517.46" y1="167.445" x2="988.771" y2="1250.02" gradientUnits="userSpaceOnUse">
<stop offset="0.484375" stop-color="#FA9E1F"/>
<stop offset="0.895833" stop-color="#FF9400"/>
</linearGradient>
<linearGradient id="paint1_linear_201_280" x1="764.043" y1="255.923" x2="1002.02" y2="668.188" gradientUnits="userSpaceOnUse">
<stop stop-color="white"/>
</linearGradient>
</defs>
</svg>
